<?xml version="1.0" encoding="UTF-8"?>
<!DOCTYPE svg PUBLIC "-//W3C//DTD SVG 1.1//EN" "http://www.w3.org/Graphics/SVG/1.1/DTD/svg11.dtd">
<!-- Creator: CorelDRAW (Not for commercial use) -->
<svg xmlns="http://www.w3.org/2000/svg" xml:space="preserve" width="100%" height="100%" version="1.1" style="shape-rendering:geometricPrecision; text-rendering:geometricPrecision; image-rendering:optimizeQuality; fill-rule:evenodd; clip-rule:evenodd"
viewBox="0 0 4334.92 4334.92"
 xmlns:xlink="http://www.w3.org/1999/xlink"
 xmlns:xodm="http://www.corel.com/coreldraw/odm/2003">
 <defs>
  <style type="text/css">
   <![CDATA[
    .fil0 {fill:none}
    .fil1 {fill:#f8dca8}
   ]]>
  </style>
 </defs>
 <g id="Layer_x0020_1">
  <metadata id="CorelCorpID_0Corel-Layer"/>
  <rect class="fil0" x="-0.01" y="-0.01" width="4334.93" height="4334.93"/>
  <g id="_105553618550752">
   <path class="fil1" d="M1517.19 2551.62c27.48,151.59 23.29,213.63 161.17,307.82 131.53,89.85 173.85,47.34 167.75,307.06 -99.66,-8.53 -243.02,-121.01 -307.51,-206.48 -34.34,-45.51 -69.47,-114.96 -66.79,-191.67 1.69,-48.43 26,-181.39 45.38,-216.73zm460.18 624.19c1.48,-49.36 8.56,-114.37 23.48,-159.07 17.67,-52.94 42.12,-69.37 97.72,-86.44 105.48,-32.35 177.82,-56.74 268.03,-106.1 84.13,-46.02 160.22,-100.55 218.89,-155.25 56.88,-53.04 107.23,-137.91 124.33,-250.42 22.15,43.16 37.93,98.83 55.09,147.02 43.38,121.85 26.01,187.2 -70.33,290.74 -92.61,99.54 -238.35,195.85 -368.43,251.34 -80.17,34.2 -249.93,81.88 -348.78,68.18zm-338.8 -525.07c47.84,19.32 113.42,97.12 242.27,129.1 245.43,60.9 496.44,-49.43 659.8,-222.58l80.33 -93.65c-51.2,155.35 -189.34,245.89 -326.28,316.61 -288.15,148.81 -311.7,23.3 -374.1,268.8 -21.83,-33.85 -17.89,-96.11 -40.98,-134.05 -51.83,-85.16 -208,-81.85 -241.04,-264.23zm-295.95 -1068.32c6.59,-48.68 3.9,-108.06 8.64,-159.65 4.71,-51.17 11.51,-97.3 20.54,-145.91 44.43,-239.24 20.48,-213.19 118.17,-214.78 111.24,-1.81 216.39,-4.25 327.42,5.76 58.26,5.26 95.09,15.42 152.6,2.47 146.67,-33.03 264.13,-63 419.63,-81.55 53.8,-6.42 269.8,-23.94 306.22,4.59 25.34,19.85 47.26,221.72 64.13,270.66 68.58,198.96 34.21,85.72 52.94,281.89 47.36,-21.43 167.61,-129.46 205.15,-98.7 23.88,41.83 8.19,141.15 -2.93,189.04 -13.39,57.74 -31.46,99.07 -58.11,142.52l-79.61 121.47c-23.43,48.55 -22.51,113.8 -90.4,107.36 2.96,-49.08 39.46,-155.56 2.97,-199.41 -84.66,322.6 -155.99,585.63 -392.43,767.81 -137.63,106.05 -360.13,181.71 -530.36,100.17 -90.26,-43.24 -219.73,-131.07 -266.65,-196.71 -126.18,-176.5 -184.39,-466.92 -244.75,-682.15 -11.13,-39.66 -24.23,-45.41 -15.11,-88.47 8.78,-41.49 0.33,-60.74 -23.78,-79.21l-126.19 -100.13c8.87,58.22 25.07,69.9 56.6,102.57 44.42,46.04 3.95,65.74 34.58,121.68 29.53,53.94 45.63,27.63 51.11,110.24 3.08,46.5 11.97,91.25 15.89,137.79 -42.77,-6.2 -48.16,-76.68 -72.97,-119.02 -22.75,-38.82 -47.41,-80.13 -65.4,-124.39 -26.37,-64.87 -85.75,-243.4 -63.72,-315.82 75.99,-10.78 147.9,110.89 195.82,139.88zm-31.81 -93.74c-70.79,-75.79 -78.14,-284.88 -62.22,-374.44 6.59,-37.04 51.75,-38.28 110.86,-41.3 -1.96,66.22 -15.41,144.69 -26.81,209.38 -12.18,69.14 -10.46,140.7 -21.83,206.36zm1534.64 -23.58c-7.16,-163.56 -75.56,-169.22 -79.31,-452.68 109.22,24.31 136.88,75.86 149.62,192.23 5.54,50.57 5.32,104.15 -3.99,154.81 -10.19,55.49 -26.71,86.48 -66.32,105.64zm-791.24 -1227.9c131.92,8.71 418.6,71.34 530.9,113 49.38,18.32 114.21,31.96 131.26,86.7 16.94,54.38 30.33,108.63 45.97,166.29 17.37,64 79.76,293.35 85.4,343.89 -60.45,-15.25 -105.37,-35.57 -176.5,-46.63 -67.75,-10.52 -139.63,-10.04 -208.69,-5.61 -195.85,12.55 -514.94,108.03 -559.2,103.7 -244.31,-23.89 -346,-44.01 -615.44,-10.74 15.32,-72.7 114.61,-387.73 143.4,-477.82 18.36,-57.48 13.3,-69.24 58.63,-97.82 63.34,-39.93 272.97,-120.37 339.32,-122.89 15.09,103 64.14,535.9 86.02,596.97 31.04,-83.13 -39.33,-515.51 -34.33,-602.33 25.75,-22.23 131.85,-49.45 173.26,-46.71zm-859.6 1137.19c-120.11,-20.33 -129.19,32.02 -115.06,147.83 9.07,74.36 31.97,156.62 57.88,219.77 29.65,72.27 61.22,120.56 98.21,181.01 29.05,47.48 25.7,111.51 73.54,138.7 72.69,41.33 32.82,-38.71 89.84,155.97 13.54,46.26 29.84,88.39 46.66,131.79 46.1,119.02 52.52,10.56 -24.55,255.16 -45.36,143.97 -10.81,107.36 -171.96,185.4 -166.28,80.52 -330.54,144.63 -504.5,210.16 -204.95,77.2 -310.79,99.36 -398.17,316.42 -26.81,66.6 -67.39,215.73 -63.11,294.96 18.6,19.56 55.4,36.73 90.04,34.31 31.69,-77.03 17.62,-204.97 107.2,-351.43 82.97,-135.63 148.08,-141.5 273.79,-189.6 222.62,-85.17 441.49,-175.58 646.34,-272.89 17.65,15.74 51.82,97.71 68.37,125.03 51.96,85.77 116.1,148.74 198.92,203 38.26,25.08 88.92,48.12 135.42,64.49 -36.54,142.4 -65.68,280.04 -78.94,437.32 -7.09,84.18 -26.24,441.17 -0.5,497.9 21.13,11.23 42.13,13.11 70.54,14.48 2.77,-256.36 -7.32,-322.49 20.18,-595.91 6.75,-67.09 19.17,-212.9 37.92,-268.41 28.85,-85.44 102.32,-51.32 239.94,-72.21 230.73,-35.02 469.16,-146.19 628.73,-293.03 41.25,-37.97 113.04,-109.99 141.69,-171.18 45.54,16.02 113.03,56.1 161.74,79.52 208.59,100.29 521.09,170.75 690.43,286.71 58.05,39.75 78.07,63.19 115.35,130.21 55.8,100.3 93.92,244.49 117.66,373.7 45.19,-2.26 68.76,-12.52 103.63,-26.86 -14.36,-156.86 -106.48,-388.07 -183.61,-479.38 -95.37,-112.89 -260.93,-171.85 -435.87,-234.21 -173.37,-61.79 -319.71,-118.39 -473.19,-196.76 -59.87,-30.58 -76.23,-37.92 -88.73,-78.79 -13.26,-43.39 -26.81,-84.36 -41.44,-126.07 -29.78,-84.86 -64.44,-174.99 -123.85,-211.38 0.49,-2.37 63.11,-199.83 73.71,-205.5 116.26,-18.78 95.38,-58.62 146.5,-142.17 10.8,-17.64 21.04,-27.36 31.11,-41.39 82.33,-114.69 130.07,-215.77 139.55,-367.38 6.93,-110.97 -6.78,-171.59 -125.72,-157.36 -6.11,-73.55 13.95,-85.13 -8.62,-241.32 -5.5,-38.08 4.23,-24.21 7.2,-53.35 2.23,-21.85 -24.82,-146.06 -30.12,-169.08 -33.36,-144.96 -69.81,-285.65 -113.67,-422.69 -34.18,-106.77 -17.36,-108.52 -111.01,-157.05 -170.38,-88.29 -440.48,-145.69 -633.49,-170.41 -101.59,-13 -357.33,53.45 -449.52,83.87 -58.33,19.25 -236.62,82.84 -260.51,141.44 -27.73,68.05 -187.14,596.55 -196.74,674.48 -4.13,33.55 6.17,27.82 8.95,53.87 3.64,34.25 -2.07,93.34 0.16,133.82 2.38,43.31 6.97,81.91 11.68,124.49z"/>
   <path class="fil1" d="M1407.05 1454.42c66.16,-36.46 98.18,-80.53 206.01,-76.65 71.43,2.58 175.55,24.33 232.19,52.86 173.24,87.27 30.41,226.38 74.26,457.37 4.45,-6.32 0.33,3.8 6.44,-12.07 2.63,-6.85 3.22,-10.06 4.96,-17.78 33.87,-150.2 104.83,-412.15 -53.83,-498.43 -68.81,-37.42 -190.81,-66.13 -281.1,-60.2 -90.71,5.96 -177.72,98.21 -188.93,154.9z"/>
   <path class="fil1" d="M1627.01 2156.81c31.58,-155.34 100.27,-149.74 162.32,-228.85 13.78,78.99 29.67,69.29 98.27,91.43 55.26,17.83 52.09,62.08 127.15,64.09 90.51,2.43 76.4,-40.68 131.5,-60.31 87.52,-31.18 53.79,17.67 125.51,-68.29 30.3,29.53 56.51,48.37 92.63,78.84 59.54,50.21 53.69,78.14 75.36,103.68 1.75,-125.74 -102.93,-151.77 -157.26,-245.07 -19.04,-32.71 -27.45,-60.45 -75.61,-60.7 57.06,136.03 28.46,114.94 -11.33,172.57 -0.78,-1.01 -1.46,-4.26 -1.63,-3.48l-3.54 -10.65c-2.19,-8.94 0.34,-8.24 -3.73,-18.29 -85.2,-18.56 -94.79,66.79 -175.78,57.86 -41.04,-4.53 -48.96,-27.5 -72.25,-44.7 -19.71,-14.55 -74.15,-34.9 -83.18,4.84 -67.44,-59.87 -14.54,-95.92 0.39,-164.87 -83.1,15.73 -50.32,49.35 -153.42,128.67 -45.16,34.75 -95.78,108.85 -75.4,203.23z"/>
   <path class="fil1" d="M2137.76 1632.7c20.65,-25.3 1.87,-110.07 47.77,-162.11 36.11,-40.95 83.03,-56.83 146.1,-71.23 232.31,-53.04 254.27,13.42 348.95,51.55 -18,-51.1 -83.54,-111.14 -130.33,-133.52 -74.69,-35.72 -335.73,-7.65 -397.19,104.14 -30.61,55.67 -44.88,145.64 -15.3,211.17z"/>
   <path class="fil1" d="M1713.38 2255.85c32.34,-15.09 26.82,-42.03 63.11,-31.28 19.6,5.8 48.5,23.48 74.29,32.54 122.29,43.02 232.92,39 355.59,4.97 94.11,-26.11 80.22,-53.22 130.18,-10.47 9.26,7.93 4.27,6.89 18.19,10.71 5.12,-48.79 -4.03,-87.92 -49.49,-92.32 -25.48,6.3 -0.98,60.02 -160.85,43.64 -39.28,-4.03 -54.25,-7.81 -91.61,6.4 -44.08,16.77 -47.07,2.82 -82.8,-9.52 -53.99,-18.66 -137.06,21.62 -180.89,-20.22 -16.86,-16.09 -27.68,-51.82 -61.91,-16.71 -20.48,21 -20.41,51.31 -13.81,82.26z"/>
   <path class="fil1" d="M1683.49 1517.82c1.1,-0.67 2.15,-14.88 29.23,-0.97 -3.18,10.64 -0.93,14.33 -11.91,16.76 -20,4.44 -14.8,-11.65 -17.32,-15.79zm-219.59 27.92c23.01,23.19 38.29,28.46 63.99,10.12 22.32,-15.93 33.77,-26.68 62.7,-38.63l10.88 28.67c9.84,31.09 35.22,51.97 72.81,51.21 72.73,-1.48 61.15,-50.89 82.99,-82.76 15.08,7.62 34.1,15.24 44.4,26.84 18,20.27 7.61,34.69 49.62,24.96 2.17,-17.74 -4.13,-23.64 -10.85,-37.16l24.43 -22.34c-16.03,-17.54 -66.27,-38.67 -88.74,-45.88 -110.46,-35.42 -240.76,-5.16 -312.23,84.97z"/>
   <path class="fil1" d="M2422.17 1517.82c18.98,-9.46 15.85,-7.44 25.58,5.58 -10.99,14.84 -20.82,21.01 -25.58,-5.58zm-199.55 -11.57c12.81,9.7 18.61,9.5 31.36,17.15 -13.45,13.11 -25.32,19.19 -24.38,42.09 56.86,22.25 32.08,-31.24 103.57,-49.08l8.7 32.11c19.93,68.59 115.57,67.65 141.23,2 5.99,-15.32 2.56,-19.42 11.99,-30.31 73.25,44.15 88.7,67.18 123.25,25.53 -41.72,-43.64 -92.45,-85.15 -180.65,-92.5 -41.07,-3.42 -85.08,-3.34 -124.28,5.25 -33.14,7.27 -75.7,29.3 -90.79,47.76z"/>
   <path class="fil1" d="M1968.52 3402.33c69.43,-27.52 107.12,71.52 40.27,97.38 -67.29,26.03 -106.87,-71 -40.27,-97.38zm113.72 86.4c51.36,-122.54 -139.43,-193.72 -186.48,-74.49 -49.49,125.41 137.81,190.6 186.48,74.49z"/>
   <path class="fil1" d="M2229.92 2323.93c-53.92,12.31 -73.46,53.42 -198.3,52.87 -108.77,-0.48 -120.09,-25.18 -195.08,-59.58 29.22,76.39 92.72,111.7 195.11,111.43 123.36,-0.32 149.88,-36.87 198.27,-104.72z"/>
   <path class="fil1" d="M2831.85 1812.81c14.34,-6.9 44.15,-36.81 55.94,-52.91 26.49,-36.15 12.57,-58.01 13.88,-102.5 35.18,-37.91 76.32,-51.61 77.81,-128.91 -15.77,2.21 -14.73,5.87 -33.5,21.48l-96.04 82.63c-31.43,30.38 -34.18,31.42 -14.59,81.02 19.51,49.41 -10.57,49.58 -3.5,99.19z"/>
   <path class="fil1" d="M2538.76 1624.31c-161.66,60.76 -134.33,12.22 -250.38,-8.43 10.12,17.04 31.07,32.43 49.9,42.02 67.74,34.49 163.36,21.45 200.48,-33.59z"/>
   <path class="fil1" d="M1547.51 1624.35c36.48,78.08 208.92,55.59 252.71,-9.03 -33.18,4.93 -75.24,28.86 -120.62,34.18 -58.2,6.82 -89.29,-4.45 -132.09,-25.15z"/>
  </g>
 </g>
</svg>
